# xmcd
#
# Track frame offsets:
#	150
#	18332
#	37074
#	78048
#	101216
#	130589
#	161668
#	186044
#	222395
#	267271
#	296242
#
# Disc length: 4478 seconds
# Revision: 0
# Processed by: cddbd v1.5.2PL0 Copyright (c) Steve Scherf et al.
# Submitted via: dBpowerAMP V12.0
#
DISCID=9b117c0b
DTITLE=Blue Heat - Live At The Continental
DYEAR=1997
DGENRE=Blues
TTITLE0=Mistakes
TTITLE1=Bungy Jump
TTITLE2=Marooned
TTITLE3=I Want Your Love
TTITLE4=I'm Comin' Home
TTITLE5=One Day Too Long
TTITLE6=Someone Else Kissin' Ya
TTITLE7=Balls Up Boogie
TTITLE8=Everynight Blues
TTITLE9=Why Oh Why
TTITLE10=Hey Hey Hey
EXTD=
EXTT0=
EXTT1=
EXTT2=
EXTT3=
EXTT4=
EXTT5=
EXTT6=
EXTT7=
EXTT8=
EXTT9=
EXTT10=
PLAYORDER=
